<svg width="12" height="8" viewBox="0 0 12 8" fill="none" xmlns="http://www.w3.org/2000/svg">
<path d="M11.3083 2.17707L6.40832 7.09166C6.34998 7.14999 6.28679 7.19121 6.21873 7.21533C6.15068 7.23983 6.07776 7.25207 5.99998 7.25207C5.92221 7.25207 5.84929 7.23983 5.78123 7.21533C5.71318 7.19121 5.64998 7.14999 5.59165 7.09166L0.677067 2.17708C0.540956 2.04096 0.4729 1.87083 0.4729 1.66666C0.4729 1.46249 0.545817 1.28749 0.69165 1.14166C0.837483 0.995826 1.00762 0.922909 1.20207 0.922909C1.39651 0.922909 1.56665 0.995826 1.71248 1.14166L5.99998 5.42916L10.2875 1.14166C10.4236 1.00555 10.5912 0.937492 10.7903 0.937492C10.9898 0.937492 11.1625 1.01041 11.3083 1.15624C11.4542 1.30207 11.5271 1.47221 11.5271 1.66666C11.5271 1.8611 11.4542 2.03124 11.3083 2.17707Z" fill="#71717A"/>
</svg>
