<svg width="18" height="24" viewBox="0 0 18 24" fill="none" xmlns="http://www.w3.org/2000/svg">
<path d="M17.2309 11.0814C17.2031 10.9605 17.1457 10.8484 17.0639 10.7552C16.982 10.6619 16.8784 10.5904 16.7622 10.5471L11.3622 8.52206L12.7309 1.65018C12.7624 1.491 12.742 1.32593 12.6729 1.17915C12.6037 1.03237 12.4893 0.911604 12.3465 0.834557C12.2023 0.757845 12.0368 0.73096 11.8757 0.75809C11.7146 0.785219 11.567 0.864839 11.4559 0.984557L0.955905 12.2346C0.869869 12.3238 0.807617 12.4333 0.774858 12.5528C0.742099 12.6724 0.73988 12.7983 0.768405 12.9189C0.797756 13.0392 0.855698 13.1505 0.937307 13.2436C1.01892 13.3366 1.12178 13.4085 1.23716 13.4533L6.63716 15.4783L5.2684 22.3502C5.23693 22.5094 5.25726 22.6744 5.32644 22.8212C5.39561 22.968 5.50998 23.0888 5.65278 23.1658C5.76042 23.2201 5.8791 23.249 5.99965 23.2502C6.10154 23.2506 6.20241 23.23 6.29597 23.1897C6.38953 23.1494 6.47377 23.0902 6.54341 23.0158L17.0434 11.7658C17.1294 11.6765 17.1917 11.5671 17.2245 11.4475C17.2572 11.328 17.2594 11.2021 17.2309 11.0814Z" fill="#6366F1"/>
</svg>
